<svg width="157" height="79" viewBox="0 0 157 79" fill="none" xmlns="http://www.w3.org/2000/svg">
  <g filter="url(#filter0_d_8_510)">
    <path fillRule="evenodd" clipRule="evenodd"
      d="M28 38.2438L24 38.2438V39.7712C24 45.7117 28.8157 50.5274 34.7562 50.5274H37.7713V54.5274H39.2987C45.2392 54.5274 50.055 49.7117 50.055 43.7712V40.7561H54.0549V39.2287C54.0549 33.2882 49.2392 28.4725 43.2987 28.4725H40.2837V24.4725L38.7562 24.4725C32.8157 24.4725 28 29.2883 28 35.2288V38.2438ZM29.5274 39.2977C29.5505 39.2977 29.5735 39.2977 29.5964 39.2975C30.0929 39.2939 30.58 39.251 31.0549 39.1719C31.6436 39.0739 32.2134 38.9201 32.7589 38.7162C35.2773 37.7747 37.2743 35.7644 38.198 33.2373C38.5592 32.2492 38.7562 31.1821 38.7562 30.069V26C38.2359 26 37.7256 26.043 37.2288 26.1258C32.8588 26.8536 29.5274 30.6522 29.5274 35.2288V39.2977ZM39.0117 35.1475C38.0222 36.9914 36.5108 38.5134 34.675 39.5158C36.5189 40.5052 38.0408 42.0167 39.0433 43.8525C40.0327 42.0086 41.5442 40.4866 43.38 39.4841C41.5361 38.4947 40.0141 36.9833 39.0117 35.1475ZM45.2902 38.6705C46.2782 39.0316 47.3454 39.2287 48.4585 39.2287H52.5275C52.5275 38.7084 52.4844 38.1981 52.4017 37.7013C51.6738 33.3312 47.8753 29.9999 43.2987 29.9999H39.2297C39.2297 30.023 39.2298 30.046 39.23 30.069C39.2336 30.5654 39.2764 31.0525 39.3555 31.5273C39.4536 32.1161 39.6074 32.6859 39.8113 33.2314C40.7528 35.7498 42.7631 37.7468 45.2902 38.6705ZM45.2961 40.2837C42.7776 41.2253 40.7806 43.2356 39.8569 45.7627C39.4958 46.7508 39.2987 47.8179 39.2987 48.931V53C39.8191 53 40.3293 52.9569 40.8262 52.8741C45.1962 52.1463 48.5275 48.3478 48.5275 43.7712V39.7022C48.5045 39.7022 48.4815 39.7023 48.4585 39.7024C47.9621 39.7061 47.4749 39.7489 47.0001 39.828C46.4114 39.926 45.8415 40.0798 45.2961 40.2837ZM38.2437 45.7687C37.3022 43.2502 35.2919 41.2532 32.7648 40.3295C31.7767 39.9683 30.7096 39.7712 29.5964 39.7712L25.5274 39.7712C25.5274 40.2915 25.5705 40.8018 25.6532 41.2986C26.3811 45.6687 30.1796 49 34.7562 49H38.8252C38.8252 48.977 38.8251 48.954 38.825 48.931C38.8213 48.4345 38.7785 47.9474 38.6994 47.4726C38.6013 46.8839 38.4476 46.314 38.2437 45.7687Z"
      fill="white" />
  </g>
  <path
    d="M69.7994 38.5524C67.369 38.278 67.1142 37.3764 67.1142 36.8472C67.1142 36.2592 67.6238 35.24 69.6426 35.24C71.6418 35.24 72.2494 36.5336 72.2494 37.4352H74.7778C74.7386 35.2008 73.2686 33.0448 69.6818 33.0448C66.4086 33.0448 64.4682 34.8088 64.4682 36.9648C64.4682 39.3168 65.7226 40.5908 69.6426 41.1004C72.0142 41.414 72.6218 42.1 72.6218 43.0408C72.6218 43.8052 71.9358 44.9616 69.6426 44.9616C67.1142 44.9616 66.6242 43.1976 66.585 42.1392H63.9978C63.9978 44.6872 65.801 47.1568 69.6426 47.1568C73.3274 47.1568 75.2874 45.1576 75.2874 42.884C75.2874 39.748 73.0334 38.9248 69.7994 38.5524Z"
    fill="white" />
  <path d="M75.9224 33.2016V35.5536H80.0776V47H82.7432V35.5536H86.8984V33.2016H75.9224Z" fill="white" />
  <path
    d="M96.4695 47H99.4487L94.4311 33.2016H90.6679L85.6503 47H88.6295L89.6879 43.864H95.4111L96.4695 47ZM90.4131 41.6688L92.0007 36.9452C92.1771 36.3964 92.2947 35.6712 92.3143 34.9852C92.3143 34.8676 92.3535 34.7108 92.5495 34.7108C92.7455 34.7108 92.7847 34.8676 92.7847 34.9852C92.8043 35.6712 92.9219 36.3964 93.0983 36.9452L94.6859 41.6688H90.4131Z"
    fill="white" />
  <path
    d="M100.399 47H103.064V41.9824H105.181C107.376 41.9824 107.768 42.7272 108.16 44.1972L108.905 47H112.002L110.669 43.3152C110.375 42.492 109.964 41.4336 108.004 41.3356C107.866 41.3356 107.788 41.2376 107.788 41.0808C107.788 40.9044 107.906 40.8456 108.004 40.826C110.14 40.4732 111.375 39.0032 111.375 37.396C111.375 35.044 109.885 33.2016 106.004 33.2016H100.399V47ZM103.064 39.748V35.5144H106.298C107.808 35.5144 108.709 36.318 108.709 37.6704C108.709 38.8856 107.376 39.748 105.75 39.748H103.064Z"
    fill="white" />
  <path
    d="M118.436 38.5524C116.005 38.278 115.751 37.3764 115.751 36.8472C115.751 36.2592 116.26 35.24 118.279 35.24C120.278 35.24 120.886 36.5336 120.886 37.4352H123.414C123.375 35.2008 121.905 33.0448 118.318 33.0448C115.045 33.0448 113.105 34.8088 113.105 36.9648C113.105 39.3168 114.359 40.5908 118.279 41.1004C120.651 41.414 121.258 42.1 121.258 43.0408C121.258 43.8052 120.572 44.9616 118.279 44.9616C115.751 44.9616 115.261 43.1976 115.221 42.1392H112.634C112.634 44.6872 114.437 47.1568 118.279 47.1568C121.964 47.1568 123.924 45.1576 123.924 42.884C123.924 39.748 121.67 38.9248 118.436 38.5524Z"
    fill="white" />
  <path d="M128.158 47V33.2016H125.492V47H128.158Z" fill="white" />
  <path
    d="M129.574 40.1008C129.574 44.0012 131.945 47.1568 135.924 47.1568C138.276 47.1568 139.55 45.3928 139.962 44.3932C140.001 44.2952 140.099 44.1972 140.256 44.256C140.373 44.2952 140.412 44.4128 140.354 44.5696C140.079 45.236 140.001 45.6476 140.001 46.0984V47H142.745V39.7872H136.63V41.9824H139.981C139.57 43.5112 138.452 44.8048 136.453 44.8048C133.65 44.8048 132.239 42.6684 132.239 40.1008C132.239 37.494 133.729 35.3968 136.551 35.3968C138.668 35.3968 139.668 36.5532 140.099 37.9056H142.745C142.314 35.4948 140.412 33.0448 136.512 33.0448C132.004 33.0448 129.574 36.2004 129.574 40.1008Z"
    fill="white" />
  <path
    d="M144.786 47H147.452V36.9648C147.452 36.3376 147.236 35.8672 147.04 35.338C146.981 35.1812 146.962 35.0244 147.158 34.9656C147.295 34.9264 147.373 35.0244 147.412 35.1224L152.469 47H156.703V33.2016H154.037V43.2368C154.037 43.864 154.253 44.3344 154.449 44.8636C154.508 45.0204 154.527 45.1772 154.331 45.236C154.194 45.2752 154.116 45.1772 154.076 45.0792L149.02 33.2016H144.786V47Z"
    fill="white" />
  <defs>
    <filter id="filter0_d_8_510" x="0.0703182" y="0.542852" width="77.9143" height="77.9142"
      filterUnits="userSpaceOnUse" color-interpolation-filters="sRGB">
      <feFlood flood-opacity="0" result="BackgroundImageFix" />
      <feColorMatrix in="SourceAlpha" type="matrix" values="0 0 0 0 0 0 0 0 0 0 0 0 0 0 0 0 0 0 127 0"
        result="hardAlpha" />
      <feOffset />
      <feGaussianBlur stdDeviation="11.9648" />
      <feComposite in2="hardAlpha" operator="out" />
      <feColorMatrix type="matrix" values="0 0 0 0 0.683333 0 0 0 0 0.886 0 0 0 0 1 0 0 0 0.25 0" />
      <feBlend mode="normal" in2="BackgroundImageFix" result="effect1_dropShadow_8_510" />
      <feBlend mode="normal" in="SourceGraphic" in2="effect1_dropShadow_8_510" result="shape" />
    </filter>
  </defs>
</svg>
