<svg viewBox="0 0 299 69" fill="none" xmlns="http://www.w3.org/2000/svg">
  <path fillRule="evenodd" clipRule="evenodd"
    d="M9.95552 31.7039L1.05225 31.7039V35.1037C1.05225 48.326 11.7711 59.0449 24.9935 59.0449H31.7045V67.948H35.1043C48.3267 67.948 59.0455 57.2292 59.0455 44.0068V37.2959H67.9487V33.8961C67.9487 20.6738 57.2298 9.95489 44.0074 9.95489H37.2965V1.05176L33.8968 1.05176C20.6744 1.05176 9.95552 11.7706 9.95552 24.993V31.7039ZM13.3553 34.0498C13.4065 34.0498 13.4577 34.0496 13.5088 34.0492C14.6138 34.0412 15.6981 33.9458 16.755 33.7698C18.0654 33.5515 19.3338 33.2092 20.5478 32.7554C26.1534 30.6597 30.5983 26.1853 32.6543 20.5604C33.4581 18.3611 33.8968 15.9859 33.8968 13.5083V4.45151C32.7386 4.45151 31.6029 4.54736 30.497 4.73155C20.7701 6.35161 13.3553 14.8064 13.3553 24.993V34.0498ZM34.4653 24.8121C32.263 28.9163 28.8988 32.3039 24.8126 34.5352C28.9168 36.7375 32.3045 40.1016 34.5357 44.1878C36.738 40.0836 40.1021 36.6959 44.1883 34.4647C40.0842 32.2624 36.6965 28.8982 34.4653 24.8121ZM48.44 32.6536C50.6393 33.4575 53.0145 33.8961 55.4921 33.8961H64.5489C64.5489 32.738 64.4531 31.6023 64.2689 30.4964C62.6488 20.7695 54.194 13.3546 44.0074 13.3546H34.9506C34.9506 13.4059 34.9508 13.4571 34.9512 13.5083C34.9593 14.6133 35.0546 15.6975 35.2306 16.7544C35.4489 18.0648 35.7912 19.3332 36.2451 20.5472C38.3408 26.1528 42.8152 30.5977 48.44 32.6536ZM48.4532 36.2444C42.8476 38.3402 38.4026 42.8147 36.3467 48.4396C35.5429 50.6388 35.1043 53.0139 35.1043 55.4915V64.5483C36.2624 64.5483 37.3982 64.4524 38.504 64.2682C48.2309 62.6482 55.6458 54.1934 55.6458 44.0068V34.95C55.5945 34.95 55.5433 34.9502 55.4921 34.9505C54.3871 34.9586 53.3029 35.054 52.246 35.23C50.9356 35.4483 49.6672 35.7906 48.4532 36.2444ZM32.7559 48.4528C30.6603 42.8472 26.1858 38.4022 20.561 36.3462C18.3616 35.5423 15.9864 35.1037 13.5088 35.1037L4.452 35.1037C4.452 36.2618 4.54785 37.3975 4.73203 38.5034C6.3521 48.2303 14.8069 55.6451 24.9935 55.6451H34.0503C34.0503 55.5939 34.0501 55.5427 34.0497 55.4915C34.0416 54.3865 33.9463 53.3023 33.7703 52.2454C33.552 50.9351 33.2098 49.6667 32.7559 48.4528Z"
    fill="#050C51" />
  <path
    d="M102.993 32.3908C97.583 31.78 97.0158 29.7733 97.0158 28.5954C97.0158 27.2866 98.1501 25.018 102.644 25.018C107.093 25.018 108.446 27.8974 108.446 29.9041H114.074C113.986 24.9308 110.714 20.132 102.731 20.132C95.4453 20.132 91.1264 24.0583 91.1264 28.8571C91.1264 34.0922 93.9184 36.9279 102.644 38.0622C107.922 38.7602 109.275 40.2871 109.275 42.3811C109.275 44.0825 107.748 46.6565 102.644 46.6565C97.0158 46.6565 95.9252 42.7301 95.838 40.3743H90.0793C90.0793 46.0457 94.0929 51.5425 102.644 51.5425C110.845 51.5425 115.208 47.0927 115.208 42.0321C115.208 35.052 110.191 33.2197 102.993 32.3908Z"
    fill="#050C51" />
  <path d="M116.621 20.481V25.7161H125.87V51.1935H131.803V25.7161H141.052V20.481H116.621Z" fill="#050C51" />
  <path
    d="M162.355 51.1935H168.986L157.818 20.481H149.442L138.274 51.1935H144.905L147.261 44.2134H159.999L162.355 51.1935ZM148.875 39.3273L152.408 28.8135C152.801 27.592 153.063 25.9778 153.106 24.4509C153.106 24.1892 153.194 23.8402 153.63 23.8402C154.066 23.8402 154.153 24.1892 154.153 24.4509C154.197 25.9778 154.459 27.592 154.851 28.8135L158.385 39.3273H148.875Z"
    fill="#050C51" />
  <path
    d="M171.101 51.1935H177.034V40.0253H181.746C186.632 40.0253 187.504 41.6831 188.377 44.955L190.035 51.1935H196.927L193.961 42.9919C193.307 41.1596 192.39 38.8038 188.028 38.5857C187.722 38.5857 187.548 38.3675 187.548 38.0185C187.548 37.6259 187.81 37.495 188.028 37.4514C192.783 36.6661 195.531 33.3942 195.531 29.8169C195.531 24.5818 192.216 20.481 183.578 20.481H171.101V51.1935ZM177.034 35.052V25.6288H184.232C187.592 25.6288 189.598 27.4175 189.598 30.4276C189.598 33.1324 186.632 35.052 183.011 35.052H177.034Z"
    fill="#050C51" />
  <path
    d="M211.248 32.3908C205.838 31.78 205.271 29.7733 205.271 28.5954C205.271 27.2866 206.405 25.018 210.899 25.018C215.348 25.018 216.701 27.8974 216.701 29.9041H222.329C222.241 24.9308 218.969 20.132 210.986 20.132C203.7 20.132 199.381 24.0583 199.381 28.8571C199.381 34.0922 202.173 36.9279 210.899 38.0622C216.177 38.7602 217.53 40.2871 217.53 42.3811C217.53 44.0825 216.003 46.6565 210.899 46.6565C205.271 46.6565 204.18 42.7301 204.093 40.3743H198.334C198.334 46.0457 202.348 51.5425 210.899 51.5425C219.1 51.5425 223.463 47.0927 223.463 42.0321C223.463 35.052 218.446 33.2197 211.248 32.3908Z"
    fill="#050C51" />
  <path d="M232.887 51.1935V20.481H226.954V51.1935H232.887Z" fill="#050C51" />
  <path
    d="M236.038 35.8372C236.038 44.5188 241.317 51.5425 250.173 51.5425C255.408 51.5425 258.244 47.6162 259.16 45.3913C259.247 45.1732 259.465 44.955 259.814 45.0859C260.076 45.1732 260.163 45.4349 260.033 45.7839C259.422 47.2672 259.247 48.1834 259.247 49.1867V51.1935H265.355V35.1392H251.744V40.0253H259.204C258.288 43.4281 255.801 46.3074 251.351 46.3074C245.113 46.3074 241.971 41.5522 241.971 35.8372C241.971 30.035 245.287 25.3671 251.569 25.3671C256.281 25.3671 258.506 27.941 259.465 30.9512H265.355C264.395 25.5852 260.163 20.132 251.482 20.132C241.448 20.132 236.038 27.1557 236.038 35.8372Z"
    fill="#050C51" />
  <path
    d="M269.898 51.1935H275.831V28.8571C275.831 27.4611 275.351 26.4141 274.915 25.2362C274.784 24.8872 274.741 24.5382 275.177 24.4073C275.482 24.32 275.657 24.5382 275.744 24.7563L286.999 51.1935H296.423V20.481H290.49V42.8174C290.49 44.2134 290.969 45.2604 291.406 46.4383C291.537 46.7873 291.58 47.1363 291.144 47.2672C290.839 47.3545 290.664 47.1363 290.577 46.9182L279.321 20.481H269.898V51.1935Z"
    fill="#050C51" />
</svg>
