<svg width="60" height="60" viewBox="0 0 60 60" fill="none" xmlns="http://www.w3.org/2000/svg">
  <path fillRule="evenodd" clipRule="evenodd"
    d="M7.8565 27.0479L0 27.0479V30.0479C-4.76837e-07 41.7155 9.4585 51.174 21.1262 51.174H27.048V59.0304H30.048C41.7157 59.0304 51.1742 49.5719 51.1742 37.9042V31.9825H59.0305V28.9825C59.0305 17.3148 49.572 7.85634 37.9044 7.85634H31.9827V0L28.9827 2.38419e-07C17.315 7.15256e-07 7.8565 9.45851 7.8565 21.1262L7.8565 27.0479ZM10.8565 29.118C10.8585 29.118 10.8605 29.118 10.8625 29.118C10.9056 29.118 10.9488 29.1178 10.9919 29.1175C11.967 29.1104 12.9238 29.0263 13.8565 28.8709C15.0128 28.6783 16.1321 28.3763 17.2033 27.9758C22.1497 26.1265 26.072 22.1783 27.8862 17.2149C28.5956 15.2741 28.9827 13.1782 28.9827 10.9919V3C27.9607 3 26.9585 3.08457 25.9827 3.24711C17.3995 4.67668 10.8565 12.1373 10.8565 21.1262L10.8565 29.118ZM29.4843 20.9666C27.5409 24.5881 24.5724 27.5774 20.9667 29.5463C24.5882 31.4896 27.5775 34.4582 29.5463 38.0639C31.4896 34.4423 34.4582 31.453 38.0639 29.4841C34.4424 27.5408 31.4531 24.5722 29.4843 20.9666ZM41.8156 27.886C43.7564 28.5954 45.8523 28.9825 48.0387 28.9825H56.0305C56.0305 27.9605 55.946 26.9583 55.7834 25.9825C54.3539 17.3994 46.8932 10.8563 37.9044 10.8563H29.9125C29.9125 10.9016 29.9127 10.9467 29.913 10.9919C29.9202 11.9669 30.0043 12.9237 30.1596 13.8563C30.3522 15.0127 30.6543 16.132 31.0548 17.2032C32.904 22.1496 36.8523 26.0718 41.8156 27.886ZM41.8273 31.0546C36.8808 32.9039 32.9586 36.8522 31.1444 41.8157C30.4351 43.7564 30.048 45.8522 30.048 48.0385V56.0304C31.07 56.0304 32.0722 55.9458 33.048 55.7833C41.6312 54.3537 48.1742 46.8931 48.1742 37.9042V29.9124C48.129 29.9124 48.0838 29.9125 48.0387 29.9129C47.0636 29.92 46.1068 30.0041 45.1742 30.1595C44.0178 30.3521 42.8985 30.6541 41.8273 31.0546ZM27.9758 41.8273C26.1266 36.8809 22.1783 32.9586 17.215 31.1444C15.2742 30.435 13.1782 30.0479 10.9919 30.0479L3 30.0479C3 31.0698 3.08457 32.0721 3.24711 33.0479C4.67668 41.631 12.1373 48.174 21.1262 48.174H29.118C29.118 48.1288 29.1179 48.0836 29.1175 48.0385C29.1104 47.0634 29.0263 46.1067 28.8709 45.174C28.6783 44.0178 28.3763 42.8985 27.9758 41.8273Z"
    fill="#050C51" />
</svg>
