<svg width="154" height="154" viewBox="0 0 154 154" fill="none" xmlns="http://www.w3.org/2000/svg">
  <g filter="url(#filter0_d_8_534)">
    <path fillRule="evenodd" clipRule="evenodd"
      d="M54.8565 74.0479L47 74.0479V77.0479C47 88.7155 56.4585 98.174 68.1262 98.174H74.048V106.03H77.048C88.7157 106.03 98.1742 96.5719 98.1742 84.9042V78.9825H106.031V75.9825C106.031 64.3148 96.572 54.8563 84.9044 54.8563H78.9827V47L75.9827 47C64.315 47 54.8565 56.4585 54.8565 68.1262L54.8565 74.0479ZM57.8565 76.118C57.8585 76.118 57.8605 76.118 57.8625 76.118C57.9056 76.118 57.9488 76.1178 57.9919 76.1175C58.967 76.1104 59.9238 76.0263 60.8565 75.8709C62.0128 75.6783 63.1321 75.3763 64.2033 74.9758C69.1497 73.1265 73.072 69.1783 74.8862 64.2149C75.5956 62.2741 75.9827 60.1782 75.9827 57.9919V50C74.9607 50 73.9585 50.0846 72.9827 50.2471C64.3995 51.6767 57.8565 59.1373 57.8565 68.1262L57.8565 76.118ZM76.4843 67.9666C74.5409 71.5881 71.5724 74.5774 67.9667 76.5463C71.5882 78.4896 74.5775 81.4582 76.5463 85.0639C78.4896 81.4423 81.4582 78.453 85.0639 76.4841C81.4424 74.5408 78.4531 71.5722 76.4843 67.9666ZM88.8156 74.886C90.7564 75.5954 92.8523 75.9825 95.0387 75.9825H103.031C103.031 74.9605 102.946 73.9583 102.783 72.9825C101.354 64.3994 93.8932 57.8563 84.9044 57.8563H76.9125C76.9125 57.9016 76.9127 57.9467 76.913 57.9919C76.9202 58.9669 77.0043 59.9237 77.1596 60.8563C77.3522 62.0127 77.6543 63.132 78.0548 64.2032C79.904 69.1496 83.8523 73.0718 88.8156 74.886ZM88.8273 78.0546C83.8808 79.9039 79.9586 83.8522 78.1444 88.8157C77.4351 90.7564 77.048 92.8522 77.048 95.0385V103.03C78.07 103.03 79.0722 102.946 80.048 102.783C88.6312 101.354 95.1742 93.8931 95.1742 84.9042V76.9124C95.129 76.9124 95.0838 76.9125 95.0387 76.9129C94.0636 76.92 93.1068 77.0041 92.1742 77.1595C91.0178 77.3521 89.8985 77.6541 88.8273 78.0546ZM74.9758 88.8273C73.1266 83.8809 69.1783 79.9586 64.215 78.1444C62.2742 77.435 60.1782 77.0479 57.9919 77.0479L50 77.0479C50 78.0698 50.0846 79.0721 50.2471 80.0479C51.6767 88.631 59.1373 95.174 68.1262 95.174H76.118C76.118 95.1288 76.1179 95.0836 76.1175 95.0385C76.1104 94.0634 76.0263 93.1067 75.8709 92.174C75.6783 91.0178 75.3763 89.8985 74.9758 88.8273Z"
      fill="white" />
  </g>
  <defs>
    <filter id="filter0_d_8_534" x="0" y="0" width="153.031" height="153.03" filterUnits="userSpaceOnUse"
      color-interpolation-filters="sRGB">
      <feFlood flood-opacity="0" result="BackgroundImageFix" />
      <feColorMatrix in="SourceAlpha" type="matrix" values="0 0 0 0 0 0 0 0 0 0 0 0 0 0 0 0 0 0 127 0"
        result="hardAlpha" />
      <feOffset />
      <feGaussianBlur stdDeviation="23.5" />
      <feComposite in2="hardAlpha" operator="out" />
      <feColorMatrix type="matrix" values="0 0 0 0 0.683333 0 0 0 0 0.886 0 0 0 0 1 0 0 0 0.25 0" />
      <feBlend mode="normal" in2="BackgroundImageFix" result="effect1_dropShadow_8_534" />
      <feBlend mode="normal" in="SourceGraphic" in2="effect1_dropShadow_8_534" result="shape" />
    </filter>
  </defs>
</svg>
